<svg width="83" height="49" viewBox="0 0 83 49" fill="none" xmlns="http://www.w3.org/2000/svg">
<path d="M26.4027 7.01106C26.146 6.99332 25.9243 6.96478 25.7027 6.96478C21.0047 6.96247 16.3067 6.97172 11.6088 6.95012C11.0999 6.94781 10.8264 7.11288 10.6108 7.56723C9.59231 9.71783 8.5479 11.8569 7.47682 14.073C5.41389 14.073 3.23821 14.073 1.02978 14.073C1.01759 13.9365 0.981791 13.8347 1.00388 13.7491C2.08182 9.64455 3.41266 5.64109 5.34837 1.85131C5.88163 0.806864 6.4903 0.439687 7.6825 0.44663C17.8143 0.506026 27.9469 0.48057 38.0787 0.48057C38.3766 0.48057 38.6744 0.48057 39.0127 0.48057C39.1026 1.46485 38.9624 2.35039 38.8352 3.22899C38.193 7.66905 36.6465 11.7882 34.2309 15.5286C32.6228 18.0194 30.8333 20.396 29.0286 22.7487C26.709 25.7725 24.3551 28.7732 21.9013 31.6859C19.2564 34.8262 17.262 38.3568 15.4451 42.0124C14.4975 43.9192 13.6618 45.8747 13.0805 47.9327C12.9907 48.2521 12.9015 48.5714 12.8002 48.9324C8.5898 48.9324 4.38471 48.9324 0.11792 48.9324C0.175054 48.6848 0.212383 48.4657 0.275611 48.2536C2.07344 42.2345 4.83798 36.7385 8.78938 31.8556C13.1979 26.4089 17.5484 20.9144 21.9249 15.4415C23.1887 13.8609 24.4213 12.2541 25.257 10.3912C25.6745 9.46019 25.9822 8.47745 26.3289 7.514C26.3807 7.37824 26.3746 7.22011 26.4027 7.01106Z" fill="white"/>
<path d="M42.0996 0.280151C42.3395 0.280151 42.6138 0.280151 42.888 0.280151C55.8803 0.280151 68.8734 0.280151 81.8657 0.280151C82.7814 0.280151 83.16 0.792346 82.9368 1.70797C82.3822 3.97891 81.1573 5.81865 79.4524 7.36835C79.1416 7.65067 78.8178 7.64373 78.4666 7.64373C74.9137 7.6445 71.3607 7.67458 67.8084 7.62984C66.2719 7.61056 65.0957 8.18832 64.2547 9.45184C64.0041 9.82827 63.7275 9.92392 63.3123 9.92392C55.6739 9.91467 48.0362 9.91775 40.3977 9.91621C40.2263 9.91621 40.0557 9.89847 39.7769 9.88304C40.5425 8.35725 41.1039 6.8253 41.3819 5.2108C41.6547 3.62176 41.8504 2.01807 42.0996 0.280151Z" fill="white"/>
<path d="M62.2823 12.134C61.0527 13.7717 59.6266 14.766 57.7184 15.0282C56.9215 15.1378 56.1354 15.3731 55.3637 15.6137C54.48 15.8899 53.8629 16.497 53.3723 17.3015C51.6667 20.0978 49.9207 22.8685 48.1876 25.6486C48.1068 25.779 48.0002 25.8931 47.9202 26.0235C46.7607 27.9226 44.9561 28.6732 42.8733 28.8915C41.9919 28.9833 41.1022 29.0226 40.2154 29.0257C36.2297 29.0396 32.244 29.0319 28.2583 29.0326C28.0092 29.0326 27.7609 29.0326 27.4089 29.0326C27.6017 28.5135 27.9064 28.1779 28.1867 27.8293C29.2212 26.5442 29.222 26.5457 30.8431 26.5457C34.2194 26.5457 37.5964 26.5233 40.9726 26.5557C42.5168 26.5704 43.8271 26.0991 44.8166 24.8926C45.4467 24.1251 46.0469 23.3221 46.5726 22.4782C47.6048 20.8221 48.375 19.0317 49.0362 17.1935C49.0781 17.0778 49.0987 16.9544 49.1452 16.7716C48.9082 16.7438 48.7185 16.7029 48.5296 16.7021C46.3715 16.6975 44.2133 16.7191 42.0559 16.6844C41.499 16.6751 41.2118 16.9158 41.0069 17.3748C40.4653 18.5835 40.4082 19.8555 40.5445 21.1461C40.5948 21.6212 40.6999 22.0902 40.8127 22.7575C40.0189 22.3494 39.4498 21.9375 39.0202 21.3736C37.6528 19.5763 37.0479 17.5715 37.5438 15.3067C37.7914 14.1743 38.1929 13.1006 38.8008 12.134C46.6069 12.134 54.3665 12.134 62.2823 12.134Z" fill="white"/>
</svg>
