<svg width="38" height="38" viewBox="0 0 38 38" fill="none" xmlns="http://www.w3.org/2000/svg">
<path d="M19 10.2917C17.2777 10.2917 15.594 10.8024 14.1619 11.7593C12.7298 12.7162 11.6137 14.0762 10.9545 15.6675C10.2954 17.2587 10.123 19.0097 10.459 20.6989C10.795 22.3882 11.6244 23.9398 12.8423 25.1577C14.0602 26.3756 15.6118 27.205 17.3011 27.541C18.9903 27.877 20.7413 27.7046 22.3325 27.0455C23.9238 26.3863 25.2838 25.2702 26.2407 23.8381C27.1976 22.406 27.7083 20.7223 27.7083 19C27.7057 16.6912 26.7874 14.4777 25.1548 12.8452C23.5223 11.2126 21.3088 10.2943 19 10.2917ZM19 26.125C17.5908 26.125 16.2133 25.7071 15.0416 24.9242C13.8699 24.1413 12.9566 23.0285 12.4174 21.7266C11.8781 20.4247 11.737 18.9921 12.0119 17.61C12.2868 16.2279 12.9654 14.9583 13.9619 13.9619C14.9583 12.9654 16.2279 12.2868 17.61 12.0119C18.9921 11.737 20.4247 11.8781 21.7266 12.4174C23.0285 12.9566 24.1413 13.8699 24.9242 15.0416C25.7071 16.2133 26.125 17.5908 26.125 19C26.1229 20.889 25.3716 22.7001 24.0358 24.0358C22.7001 25.3716 20.889 26.1229 19 26.125ZM27.7083 0H10.2917C7.5631 0.00309062 4.94717 1.08838 3.01777 3.01777C1.08838 4.94717 0.00309062 7.5631 0 10.2917V27.7083C0.00309062 30.4369 1.08838 33.0528 3.01777 34.9822C4.94717 36.9116 7.5631 37.9969 10.2917 38H27.7083C30.4369 37.9969 33.0528 36.9116 34.9822 34.9822C36.9116 33.0528 37.9969 30.4369 38 27.7083V10.2917C37.9969 7.5631 36.9116 4.94717 34.9822 3.01777C33.0528 1.08838 30.4369 0.00309062 27.7083 0ZM36.4167 27.7083C36.414 30.0171 35.4957 32.2306 33.8632 33.8632C32.2306 35.4957 30.0171 36.414 27.7083 36.4167H10.2917C7.98288 36.414 5.7694 35.4957 4.13684 33.8632C2.50428 32.2306 1.58595 30.0171 1.58333 27.7083V10.2917C1.58595 7.98288 2.50428 5.7694 4.13684 4.13684C5.7694 2.50428 7.98288 1.58595 10.2917 1.58333H27.7083C30.0171 1.58595 32.2306 2.50428 33.8632 4.13684C35.4957 5.7694 36.414 7.98288 36.4167 10.2917V27.7083ZM30.875 8.70833C30.875 9.02149 30.7821 9.32761 30.6082 9.58799C30.4342 9.84836 30.1869 10.0513 29.8976 10.1711C29.6083 10.291 29.2899 10.3223 28.9828 10.2612C28.6756 10.2002 28.3935 10.0494 28.1721 9.82792C27.9506 9.60649 27.7999 9.32436 27.7388 9.01723C27.6777 8.71009 27.709 8.39173 27.8289 8.10242C27.9487 7.8131 28.1516 7.56582 28.412 7.39184C28.6724 7.21786 28.9785 7.125 29.2917 7.125C29.7114 7.12552 30.1139 7.29251 30.4107 7.58933C30.7075 7.88615 30.8745 8.28857 30.875 8.70833Z" fill="white"/>
</svg>
