<svg width="39" height="34" viewBox="0 0 39 34" fill="none" xmlns="http://www.w3.org/2000/svg">
<path d="M38.9169 5.00998C38.8344 4.81171 38.6946 4.64224 38.5152 4.523C38.3359 4.40376 38.125 4.34012 37.9093 4.3401H32.1662C31.5491 3.20668 30.6748 2.23211 29.6127 1.49384C28.5506 0.755577 27.33 0.273981 26.048 0.0873358C24.7661 -0.0993092 23.458 0.0141429 22.2278 0.418674C20.9976 0.823206 19.8792 1.50766 18.9615 2.41764C18.17 3.18548 17.5407 4.10311 17.111 5.11651C16.6812 6.1299 16.4595 7.2186 16.4589 8.31851L16.4577 9.88723C8.75134 8.07399 2.3904 1.83023 2.32405 1.76421C2.1833 1.62418 2.00672 1.52514 1.81343 1.47782C1.62015 1.4305 1.41753 1.43671 1.22754 1.49576C1.03755 1.55482 0.86742 1.66448 0.735593 1.81286C0.603767 1.96124 0.515267 2.14268 0.479683 2.33752C-1.09237 10.9394 1.4973 16.6875 3.94683 19.9946C5.25464 21.7688 6.85773 23.3074 8.68681 24.5441C5.865 27.938 1.21954 29.71 1.16991 29.7286C1.01607 29.786 0.877248 29.8772 0.763813 29.9955C0.650377 30.1137 0.565259 30.2559 0.514815 30.4115C0.464372 30.5671 0.449906 30.732 0.472499 30.8939C0.495091 31.0558 0.554157 31.2105 0.645287 31.3465C0.82707 31.6182 2.60291 34 8.82406 34C21.502 34 32.0868 24.256 33.103 11.7415L38.6806 6.19258C38.8331 6.04081 38.937 5.84744 38.9791 5.63694C39.0211 5.42644 38.9995 5.20826 38.9169 5.00998ZM31.2733 10.4927C31.0858 10.6794 30.973 10.9276 30.9561 11.191C30.215 22.7641 20.4934 31.8298 8.82406 31.8298C6.28819 31.8298 4.68705 31.3941 3.72251 30.962C5.77792 29.9341 9.12654 27.909 11.1858 24.8358C11.2711 24.7079 11.3282 24.5634 11.3534 24.412C11.3785 24.2605 11.3712 24.1054 11.3317 23.957C11.2923 23.8086 11.2218 23.6701 11.1247 23.5508C11.0276 23.4314 10.9063 23.3339 10.7686 23.2646C10.7411 23.2508 7.99767 21.8449 5.64141 18.6237C2.83413 14.7858 1.72471 10.1091 2.33332 4.69982C4.98262 6.94312 10.7219 11.1807 17.3679 12.2832C17.524 12.3091 17.684 12.3008 17.8366 12.259C17.9893 12.2172 18.131 12.1428 18.2518 12.041C18.3727 11.9392 18.4698 11.8125 18.5364 11.6696C18.6031 11.5267 18.6377 11.3711 18.6378 11.2136L18.6403 8.32032V8.31923C18.6557 6.67954 19.3226 5.11251 20.4954 3.9604C21.6682 2.80829 23.2517 2.16471 24.8998 2.17023C26.089 2.1866 27.2482 2.5432 28.2391 3.19743C29.2301 3.85166 30.0107 4.77586 30.4878 5.85963C30.5727 6.05299 30.7125 6.21752 30.8899 6.3331C31.0674 6.44867 31.2748 6.51026 31.4869 6.51034H35.276L31.2733 10.4927Z" fill="white"/>
<path d="M38.9169 5.00998C38.8344 4.81171 38.6946 4.64224 38.5152 4.523C38.3359 4.40376 38.125 4.34012 37.9093 4.3401H32.1662C31.5491 3.20668 30.6748 2.23211 29.6127 1.49384C28.5506 0.755577 27.33 0.273981 26.048 0.0873358C24.7661 -0.0993092 23.458 0.0141429 22.2278 0.418674C20.9976 0.823206 19.8792 1.50766 18.9615 2.41764C18.17 3.18548 17.5407 4.10311 17.111 5.11651C16.6812 6.1299 16.4595 7.2186 16.4589 8.31851L16.4577 9.88723C8.75134 8.07399 2.3904 1.83023 2.32405 1.76421C2.1833 1.62418 2.00672 1.52514 1.81343 1.47782C1.62015 1.4305 1.41753 1.43671 1.22754 1.49576C1.03755 1.55482 0.86742 1.66448 0.735593 1.81286C0.603767 1.96124 0.515267 2.14268 0.479683 2.33752C-1.09237 10.9394 1.4973 16.6875 3.94683 19.9946C5.25464 21.7688 6.85773 23.3074 8.68681 24.5441C5.865 27.938 1.21954 29.71 1.16991 29.7286C1.01607 29.786 0.877248 29.8772 0.763813 29.9955C0.650377 30.1137 0.565259 30.2559 0.514815 30.4115C0.464372 30.5671 0.449906 30.732 0.472499 30.8939C0.495091 31.0558 0.554157 31.2105 0.645287 31.3465C0.82707 31.6182 2.60291 34 8.82406 34C21.502 34 32.0868 24.256 33.103 11.7415L38.6806 6.19258C38.8331 6.04081 38.937 5.84744 38.9791 5.63694C39.0211 5.42644 38.9995 5.20826 38.9169 5.00998ZM31.2733 10.4927C31.0858 10.6794 30.973 10.9276 30.9561 11.191C30.215 22.7641 20.4934 31.8298 8.82406 31.8298C6.28819 31.8298 4.68705 31.3941 3.72251 30.962C5.77792 29.9341 9.12654 27.909 11.1858 24.8358C11.2711 24.7079 11.3282 24.5634 11.3534 24.412C11.3785 24.2605 11.3712 24.1054 11.3317 23.957C11.2923 23.8086 11.2218 23.6701 11.1247 23.5508C11.0276 23.4314 10.9063 23.3339 10.7686 23.2646C10.7411 23.2508 7.99767 21.8449 5.64141 18.6237C2.83413 14.7858 1.72471 10.1091 2.33332 4.69982C4.98262 6.94312 10.7219 11.1807 17.3679 12.2832C17.524 12.3091 17.684 12.3008 17.8366 12.259C17.9893 12.2172 18.131 12.1428 18.2518 12.041C18.3727 11.9392 18.4698 11.8125 18.5364 11.6696C18.6031 11.5267 18.6377 11.3711 18.6378 11.2136L18.6403 8.32032V8.31923C18.6557 6.67954 19.3226 5.11251 20.4954 3.9604C21.6682 2.80829 23.2517 2.16471 24.8998 2.17023C26.089 2.1866 27.2482 2.5432 28.2391 3.19743C29.2301 3.85166 30.0107 4.77586 30.4878 5.85963C30.5727 6.05299 30.7125 6.21752 30.8899 6.3331C31.0674 6.44867 31.2748 6.51026 31.4869 6.51034H35.276L31.2733 10.4927Z" stroke="white"/>
</svg>
