<svg width="46" height="33" viewBox="0 0 46 33" fill="none" xmlns="http://www.w3.org/2000/svg">
<path d="M27.0001 16.3834L19.4167 20.7167V12.05L27.0001 16.3834Z" fill="white" stroke="white" stroke-width="2" stroke-linecap="round" stroke-linejoin="round"/>
<path d="M1 17.9152V14.8493C1 8.57683 1 5.4395 2.96083 3.42233C4.92383 1.403 8.0135 1.31633 14.1907 1.14083C17.1157 1.0585 20.1057 1 22.6667 1C25.2255 1 28.2155 1.0585 31.1427 1.14083C37.3198 1.31633 40.4095 1.403 42.3703 3.42233C44.3333 5.4395 44.3333 8.579 44.3333 14.8493V17.9152C44.3333 24.1898 44.3333 27.325 42.3725 29.3443C40.4095 31.3615 37.322 31.4503 31.1427 31.6237C28.2177 31.7082 25.2277 31.7667 22.6667 31.7667C20.1078 31.7667 17.1178 31.7082 14.1907 31.6237C8.0135 31.4503 4.92383 31.3637 2.96083 29.3443C1 27.325 1 24.1877 1 17.9173V17.9152Z" stroke="white" stroke-width="2"/>
</svg>
