<svg width="212" height="60" viewBox="0 0 212 60" fill="none" xmlns="http://www.w3.org/2000/svg">
<path d="M0 0V60H212V0H0ZM34.9456 28.8318C34.9456 31.6653 34.2526 34.0017 32.9162 35.8906C31.9262 37.2328 30.6393 38.3264 29.0553 39.0721C27.5209 39.8674 25.8875 40.2651 24.155 40.2651C20.8882 40.2651 18.1163 39.0721 15.8394 36.7357C13.513 34.3993 12.3745 31.5659 12.3745 28.2353C12.3745 24.855 13.513 22.0215 15.8889 19.6852C18.2153 17.2991 21.0862 16.1558 24.4025 16.1558C27.0259 16.1558 29.3028 16.9014 31.3322 18.3927C32.1242 18.9395 32.9657 19.7846 33.9061 20.8782L31.4312 23.2643C29.5008 20.7291 27.1744 19.4366 24.5015 19.4366C22.0266 19.4366 19.9972 20.2817 18.3143 21.9718C16.6808 23.7117 15.8394 25.7995 15.8394 28.2353C15.8394 30.8699 16.7798 32.9577 18.6113 34.6479C20.2942 36.1889 22.1751 36.9345 24.254 36.9345C25.9865 36.9345 27.5209 36.3877 28.8573 35.1947C30.2433 34.0514 30.9858 32.6595 31.1343 31.0191H25.3925V27.7382H34.9456V28.8318ZM52.4184 19.884H43.1623V25.4515H52.1214V28.7821H43.1623V36.4872H52.4184V39.8177H39.6479V16.6031H52.4184V19.884ZM69.4952 19.884H64.1989V39.8177H60.6846V19.884H55.3883V16.6031H69.4952V19.884ZM93.6502 19.884H88.354V39.8177H84.8396V19.884H79.5433V16.6031H93.6502V19.884ZM100.629 39.8177H97.1151V16.6031H100.629V39.8177ZM123.597 21.9718C121.567 20.2817 119.439 19.4366 117.31 19.4366C114.934 19.4366 112.954 20.3314 111.321 22.0215C109.688 23.7614 108.846 25.8492 108.846 28.285C108.846 30.7208 109.688 32.7589 111.321 34.449C112.954 36.1392 114.984 36.9345 117.36 36.9345C118.498 36.9345 119.488 36.7854 120.429 36.338C121.369 35.9901 122.409 35.2941 123.597 34.2999V38.5253C121.567 39.6686 119.488 40.2651 117.31 40.2651C113.994 40.2651 111.173 39.0721 108.846 36.7854C106.52 34.449 105.381 31.6156 105.381 28.3347C105.381 24.9544 106.569 22.0713 108.945 19.7349C111.321 17.3488 114.192 16.1558 117.558 16.1558C119.637 16.1558 121.666 16.7026 123.597 17.8459V21.9718ZM141.416 39.8177L133.1 29.478L132.358 30.2237V39.8177H128.893V16.6031H132.358V25.8492L141.366 16.6031H146.019L135.625 27.092L146.069 39.8177H141.416ZM162.304 19.884H153.048V25.4515H162.007V28.7821H153.048V36.4872H162.304V39.8177H149.533V16.6031H162.304V19.884ZM179.381 19.884H174.085V39.8177H170.57V19.884H165.274V16.6031H179.381V19.884ZM194.28 38.1773C192.844 39.5692 191.112 40.2651 188.983 40.2651C186.36 40.2651 184.331 39.2212 182.945 37.1831C182.252 36.1392 181.806 34.8964 181.559 33.4051L185.123 32.6098C185.271 33.8028 185.469 34.6479 185.766 35.145C186.063 35.6918 186.509 36.1392 187.152 36.4872C187.746 36.7854 188.389 36.9345 189.082 36.9345C190.171 36.9345 191.112 36.5866 191.805 35.8409C192.498 35.145 192.894 34.2005 192.894 33.1069C192.894 31.8144 192.349 30.7705 191.26 30.0249C190.765 29.6769 189.429 29.0804 187.35 28.1856C184.182 26.8434 182.598 24.9047 182.598 22.3198C182.598 20.5302 183.291 19.0886 184.578 17.8956C185.915 16.7523 187.548 16.1558 189.528 16.1558C190.963 16.1558 192.151 16.454 193.141 17.1002C194.131 17.6968 195.022 18.691 195.814 20.0331L192.993 21.773C192.448 20.8782 191.953 20.2817 191.458 19.9337C190.963 19.6355 190.32 19.4366 189.528 19.4366C188.587 19.4366 187.795 19.7349 187.152 20.2817C186.459 20.8285 186.162 21.5244 186.162 22.3198C186.162 23.1152 186.509 23.7614 187.251 24.3082C187.696 24.6065 188.934 25.1533 190.963 25.9983C192.844 26.7937 194.23 27.7382 195.072 28.8318C195.963 29.9254 196.359 31.2676 196.359 32.8583C196.359 34.9959 195.666 36.7357 194.28 38.1773Z" fill="white"/>
</svg>
