<svg width="221" height="240" viewBox="0 0 221 240" fill="none" xmlns="http://www.w3.org/2000/svg">
<g clip-path="url(#clip0_63_2)">
<path d="M0.111344 0.726222C1.78306 0.726222 3.3438 0.726222 4.90453 0.726222C10.537 0.719239 16.1626 0.733205 21.7951 0.691307C22.5998 0.684324 23.0021 0.92873 23.3489 1.66893C31.215 18.519 39.1089 35.3621 47.0097 52.1982C47.3149 52.8406 47.4675 53.4761 47.4397 54.1814C47.412 55.0682 47.4328 55.9551 47.4328 56.9397C47.079 56.9955 46.7808 57.0793 46.4825 57.0793C39.8026 57.0863 33.1295 57.0654 26.4496 57.1073C25.6241 57.1142 25.3397 56.6953 25.0484 56.0807C21.6842 49.0837 18.306 42.0937 14.9279 35.1107C10.2665 25.4532 5.63981 15.7956 0.902116 6.18696C0.0489141 4.4412 -0.0620714 2.73734 0.111344 0.726222Z" fill="white"/>
<path d="M13.998 61.8069C20.6294 61.8069 27.1637 61.8069 33.7882 61.8069C33.7882 80.5214 33.7882 99.1661 33.7882 117.804C32.9627 118.034 15.4894 118.097 13.998 117.867C13.998 99.236 13.998 80.5913 13.998 61.8069Z" fill="white"/>
<path d="M155.38 183.822C161.983 183.822 168.483 183.822 174.976 183.822C175.232 184.743 175.295 238.457 175.038 239.958C168.518 239.958 161.99 239.958 155.38 239.958C155.38 221.258 155.38 202.606 155.38 183.822Z" fill="white"/>
<path d="M72.4598 117.923C65.8422 117.923 59.308 117.923 52.7043 117.923C52.7043 99.2011 52.7043 80.5494 52.7043 61.8279C59.308 61.8279 65.8422 61.8279 72.4598 61.8279C72.4598 80.5075 72.4598 99.1522 72.4598 117.923Z" fill="white"/>
<path d="M86.2774 178.968C79.7084 178.968 73.2088 178.968 66.7093 178.968C66.4526 178.13 66.3555 124.773 66.6191 122.839C73.1325 122.839 79.6599 122.839 86.2774 122.839C86.2774 141.511 86.2774 160.163 86.2774 178.968Z" fill="white"/>
<path d="M105.582 183.814C112.206 183.814 118.713 183.814 125.309 183.814C125.309 202.536 125.309 221.223 125.309 239.979C118.727 239.979 112.192 239.979 105.582 239.979C105.582 221.257 105.582 202.606 105.582 183.814Z" fill="white"/>
<path d="M164.175 117.93C157.696 117.93 151.28 117.93 144.781 117.93C144.781 99.2499 144.781 80.6052 144.781 61.9605C145.592 61.7091 162.247 61.6113 164.175 61.8697C164.175 80.5004 164.175 99.1382 164.175 117.93Z" fill="white"/>
<path d="M199.67 239.986C193.191 239.986 186.768 239.986 180.352 239.986C180.095 239.148 179.991 185.979 180.254 183.843C186.692 183.843 193.143 183.843 199.67 183.843C199.67 202.543 199.67 221.23 199.67 239.986Z" fill="white"/>
<path d="M72.6054 0C72.6054 19.3081 72.6054 38.4346 72.6054 57.7497C71.5303 57.6031 70.5453 57.5263 69.5741 57.3377C61.5069 55.7665 56.1102 51.0181 53.2523 43.3018C51.8303 39.4751 51.2199 35.4878 51.0673 31.4167C50.8939 26.752 51.0742 22.1013 52.302 17.5693C52.7668 15.8585 53.3286 14.1546 54.057 12.5415C57.227 5.55151 62.7 1.57118 70.1846 0.32122C70.9268 0.195525 71.6829 0.118712 72.6054 0Z" fill="white"/>
<path d="M130.103 122.07C131.948 122.105 133.634 122.461 135.291 122.929C142.714 125.038 147.34 130.052 149.775 137.272C151.294 141.769 151.745 146.42 151.731 151.148C151.717 155.505 151.273 159.793 149.962 163.955C148.513 168.577 146.113 172.579 142.179 175.518C138.864 177.997 135.076 179.226 131.012 179.673C130.734 179.701 130.457 179.68 130.096 179.68C130.103 160.498 130.103 141.371 130.103 122.07Z" fill="white"/>
<path d="M125.268 179.771C124.179 179.618 123.145 179.52 122.126 179.317C113.726 177.655 108.384 172.53 105.651 164.485C104.368 160.694 103.848 156.762 103.723 152.789C103.563 147.586 103.966 142.426 105.61 137.44C107.261 132.454 110.001 128.271 114.502 125.415C117.596 123.453 121.009 122.489 124.609 122.091C124.803 122.07 125.004 122.091 125.192 122.091C125.434 123.006 125.518 177.676 125.268 179.771Z" fill="white"/>
<path d="M77.4404 0.0419922C79.8197 0.195619 82.0463 0.663483 84.2106 1.44558C90.3703 3.68016 94.338 8.1074 96.6756 14.1477C97.8479 17.1854 98.4791 20.3626 98.7913 23.5888C99.2768 28.6096 99.1173 33.6164 98.1115 38.5674C97.6121 41.0324 96.8629 43.4206 95.76 45.6901C92.5137 52.3869 87.1447 56.1786 79.9168 57.4146C79.3202 57.5194 78.7237 57.5892 78.1272 57.659C77.9329 57.68 77.7318 57.6451 77.4404 57.6311C77.4404 38.4836 77.4404 19.3571 77.4404 0.0419922Z" fill="white"/>
<path d="M90.6404 61.7791C94.8995 61.7791 99.11 61.7791 103.494 61.7791C108.218 80.4377 112.942 99.1104 117.665 117.783C116.791 118.069 101.115 118.167 99.2765 117.902C99.006 116.896 98.7216 115.849 98.451 114.794C94.9827 101.156 91.5283 87.5185 88.0461 73.8876C87.8311 73.0357 87.8103 72.2536 88.0461 71.4017C88.8091 68.6364 89.5098 65.8502 90.245 63.0779C90.356 62.6589 90.4947 62.2399 90.6404 61.7791Z" fill="white"/>
<path d="M127.051 61.8069C131.761 80.5284 136.45 99.1801 141.174 117.95C134.993 117.95 128.944 117.95 122.819 117.95C122.355 116.121 121.897 114.326 121.439 112.532C118.151 99.5991 114.877 86.6665 111.568 73.7409C111.367 72.9588 111.388 72.2535 111.596 71.4854C112.463 68.2871 113.281 65.0819 114.135 61.8069C118.415 61.8069 122.66 61.8069 127.051 61.8069Z" fill="white"/>
<path d="M130.2 239.993C130.2 221.251 130.2 202.599 130.2 183.842C131.289 183.731 132.295 183.989 133.294 184.192C142.492 186.035 148.034 191.754 150.476 200.72C151.69 205.176 151.918 209.736 151.745 214.33C151.599 218.115 151.044 221.823 149.761 225.398C146.563 234.274 140.154 238.967 130.949 239.986C130.755 240.007 130.554 239.993 130.2 239.993Z" fill="white"/>
<path d="M47.1759 41.5421C46.94 41.0812 46.7042 40.6203 46.4753 40.1524C41.4948 29.9013 36.5213 19.6503 31.52 9.40614C31.0622 8.47041 30.8263 7.54865 30.861 6.50119C30.9165 4.64371 30.8749 2.78622 30.8749 0.956663C31.742 0.677342 45.5666 0.607511 47.3493 0.858901C47.3493 14.392 47.3493 27.9321 47.3493 41.4792C47.2938 41.5002 47.2314 41.5211 47.1759 41.5421Z" fill="white"/>
<path d="M16.4539 56.9955C11.0503 56.9955 5.63976 56.9955 0.0557977 56.9955C0.0488611 43.4065 0.0141781 29.8594 0.0488611 16.3123C0.139037 16.2983 0.222276 16.2774 0.312452 16.2634C0.49974 16.5986 0.700901 16.9338 0.86738 17.276C5.97965 27.8134 11.0989 38.3508 16.1973 48.8882C16.3845 49.2792 16.551 49.7261 16.558 50.1451C16.5926 52.2889 16.5718 54.4327 16.558 56.5765C16.558 56.6952 16.5025 56.8139 16.4539 56.9955Z" fill="white"/>
<path d="M92.1457 117.971C86.749 117.971 81.4564 117.971 75.9834 117.971C79.0494 106.03 82.0876 94.1872 85.1883 82.1274C85.3756 82.5883 85.5143 82.8327 85.5767 83.0981C88.1294 93.0838 90.6751 103.077 93.2139 113.069C93.2833 113.342 93.3596 113.649 93.2972 113.9C92.9365 115.255 92.5341 116.603 92.1457 117.971Z" fill="white"/>
<path d="M185.505 93.1605C185.505 101.4 185.505 109.64 185.505 117.95C179.041 117.95 172.645 117.95 165.979 117.95C172.513 109.536 178.895 101.303 185.284 93.0627C185.353 93.0977 185.429 93.1326 185.505 93.1605Z" fill="white"/>
<path d="M221 214.938C221 223.408 221 231.648 221 239.979C214.542 239.979 208.14 239.979 201.716 239.979C202.049 239.078 218.87 217.228 221 214.938Z" fill="white"/>
<path d="M201.397 183.807C207.966 183.807 214.258 183.807 220.549 183.807C220.813 184.631 220.882 203.625 220.591 205.273C214.209 198.13 207.904 191.084 201.397 183.807Z" fill="white"/>
<path d="M185.193 83.3216C178.722 76.0802 172.437 69.0343 165.979 61.8069C172.555 61.8069 178.833 61.8069 185.193 61.8069C185.193 68.9016 185.193 75.9545 185.193 83.3216Z" fill="white"/>
<path d="M35.1409 61.7859C39.4762 61.7859 43.5688 61.7859 47.7377 61.7859C47.7377 70.4798 47.7377 79.1108 47.7377 87.7418C47.6684 87.7628 47.6059 87.7837 47.5366 87.8047C43.437 79.1876 39.3306 70.5775 35.1409 61.7859Z" fill="white"/>
<path d="M52.7319 122.804C56.8314 122.804 60.8754 122.804 64.9125 122.804C64.9472 122.86 64.975 122.888 64.9888 122.915C65.0027 122.95 65.0374 122.999 65.0235 123.027C61.0835 131.393 57.1366 139.758 53.1966 148.124C53.0995 148.334 52.9746 148.536 52.829 148.809C52.5723 147.866 52.496 124.724 52.7319 122.804Z" fill="white"/>
<path d="M100.053 148.746C95.9609 140.157 91.8683 131.567 87.6855 122.783C91.9585 122.706 96.058 122.741 100.241 122.755C100.241 131.463 100.241 140.073 100.241 148.676C100.171 148.704 100.116 148.725 100.053 148.746Z" fill="white"/>
<path d="M12.583 61.9046C8.50431 70.5217 4.43253 79.1108 0.312191 87.8186C4.42946e-05 86.8131 -0.104005 63.8668 0.138776 61.9116C1.04053 61.6742 11.3344 61.6393 12.583 61.9046Z" fill="white"/>
<path d="M177.882 100.325C173.699 96.3518 169.725 92.581 165.66 88.7124C169.711 84.8647 173.699 81.0729 177.66 77.3091C177.785 77.3649 177.826 77.3719 177.861 77.3929C177.889 77.4138 177.931 77.4487 177.931 77.4767C177.944 84.8438 177.958 92.2179 177.965 99.585C177.958 99.7386 177.931 99.8922 177.882 100.325Z" fill="white"/>
<path d="M213.293 199.198C213.293 206.984 213.293 214.498 213.293 222.291C209.159 218.367 205.198 214.61 201.12 210.741C205.157 206.908 209.138 203.137 213.293 199.198Z" fill="white"/>
</g>
<defs>
<clipPath id="clip0_63_2">
<rect width="221" height="240" fill="white"/>
</clipPath>
</defs>
</svg>
