<svg width="158" height="50" viewBox="0 0 158 50" fill="none" xmlns="http://www.w3.org/2000/svg">
<g clip-path="url(#clip0_66_68)">
<path d="M36.926 17.1403C36.8666 21.2363 35.9852 25.1534 34.7001 28.9956C33.1894 33.5098 31.0945 37.7122 28.1418 41.4457C25.9281 44.245 23.3395 46.5977 20.1522 48.2323C17.3823 49.6532 14.4494 50.2371 11.3718 49.9054C7.82486 49.5228 5.07251 47.7563 3.09642 44.7565C1.76481 42.7354 0.964172 40.4938 0.581753 38.1126C0.314364 36.4464 0.0972537 34.7632 0.00812415 33.0793C-0.0436776 32.0966 0.199334 31.0977 0.310555 30.1057C0.924559 24.5965 2.65611 19.4406 5.18983 14.5539C7.1781 10.7194 9.69429 7.28674 13.0256 4.5198C15.5578 2.41625 18.3818 0.895865 21.6277 0.286476C23.4355 -0.0529304 25.2699 -0.138553 27.07 0.288019C29.6822 0.906665 31.6765 2.4903 33.2565 4.63551C35.0398 7.05841 36.0439 9.81532 36.4949 12.7751C36.7135 14.2191 36.7866 15.6847 36.926 17.1403ZM27.4128 10.4C27.3358 9.4034 27.2871 8.40369 27.1713 7.4117C27.0906 6.72132 26.8666 6.0641 26.4461 5.48943C26.0439 4.9402 25.503 4.66791 24.8577 4.82064C24.3519 4.94098 23.8415 5.15079 23.4042 5.43311C22.321 6.1343 21.5043 7.12706 20.7349 8.153C18.8541 10.6623 17.3983 13.4246 16.0728 16.2594C13.7889 21.1438 12.0223 26.2264 10.4462 31.3808C9.61354 34.1037 8.84718 36.8467 8.54628 39.6939C8.41906 40.8957 8.35278 42.1068 8.75805 43.2777C9.24103 44.6739 10.5963 45.2432 11.889 44.5613C12.3781 44.3037 12.8397 43.9627 13.2526 43.5909C14.956 42.0582 16.2685 40.1968 17.4973 38.2738C20.5856 33.438 22.9647 28.2567 24.761 22.8022C26.0873 18.7733 27.1165 14.6742 27.4128 10.4Z" fill="white"/>
<path d="M74.8796 17.1501C74.8377 20.7879 74.1368 24.2992 73.0757 27.7504C71.6389 32.4226 69.5996 36.7917 66.6751 40.7072C64.3036 43.8815 61.4911 46.5466 57.9282 48.3285C55.169 49.7085 52.2491 50.2584 49.2065 49.8882C45.1362 49.393 42.2422 47.1297 40.3445 43.5096C38.9642 40.8754 38.3662 38.0267 38.1925 35.0739C37.8489 29.253 39.1958 23.7585 41.3608 18.4275C42.8844 14.6747 44.8444 11.1789 47.446 8.07483C49.6529 5.44135 52.1927 3.21823 55.297 1.72639C57.4254 0.703538 59.6529 0.138889 62.0343 0.0386098C66.4107 -0.14575 69.4891 1.94391 71.7974 5.47297C73.3667 7.87273 74.1917 10.5633 74.5726 13.3919C74.7386 14.6354 74.7805 15.8966 74.8796 17.1501ZM65.313 9.78575C65.313 9.63147 65.3153 9.4772 65.3122 9.32369C65.2917 8.26536 65.1896 7.21629 64.8102 6.22198C64.2754 4.81884 63.2051 4.42313 61.8758 5.11197C61.6511 5.22844 61.4187 5.35187 61.2336 5.52003C60.6501 6.05073 60.0414 6.5637 59.5242 7.15689C57.7987 9.13393 56.496 11.3995 55.2947 13.7236C52.2948 19.5244 50.1343 25.6615 48.2512 31.9058C47.4589 34.5339 46.7527 37.1851 46.4762 39.932C46.365 41.0366 46.3307 42.1435 46.6918 43.2119C47.206 44.7338 48.6077 45.2769 49.9888 44.4847C50.4261 44.2332 50.8428 43.9254 51.2191 43.5876C52.8265 42.142 54.0895 40.4025 55.2536 38.5913C59.3139 32.2738 62.2346 25.4478 64.0774 18.149C64.7706 15.4029 65.23 12.6221 65.313 9.78575Z" fill="white"/>
<path d="M101.403 7.01106C101.146 6.99332 100.924 6.96478 100.703 6.96478C96.0047 6.96247 91.3067 6.97172 86.6088 6.95012C86.0999 6.94781 85.8264 7.11288 85.6108 7.56723C84.5923 9.71783 83.5479 11.8569 82.4768 14.073C80.4139 14.073 78.2382 14.073 76.0298 14.073C76.0176 13.9365 75.9818 13.8347 76.0039 13.7491C77.0818 9.64455 78.4127 5.64109 80.3484 1.85131C80.8816 0.806864 81.4903 0.439687 82.6825 0.44663C92.8143 0.506026 102.947 0.48057 113.079 0.48057C113.377 0.48057 113.674 0.48057 114.013 0.48057C114.103 1.46485 113.962 2.35039 113.835 3.22899C113.193 7.66905 111.647 11.7882 109.231 15.5286C107.623 18.0194 105.833 20.396 104.029 22.7487C101.709 25.7725 99.3551 28.7732 96.9013 31.6859C94.2564 34.8262 92.262 38.3568 90.4451 42.0124C89.4975 43.9192 88.6618 45.8747 88.0805 47.9327C87.9907 48.2521 87.9015 48.5714 87.8002 48.9324C83.5898 48.9324 79.3847 48.9324 75.1179 48.9324C75.1751 48.6848 75.2124 48.4657 75.2756 48.2536C77.0734 42.2345 79.838 36.7385 83.7894 31.8556C88.1979 26.4089 92.5484 20.9144 96.9249 15.4415C98.1887 13.8609 99.4213 12.2541 100.257 10.3912C100.674 9.46019 100.982 8.47745 101.329 7.514C101.381 7.37824 101.375 7.22011 101.403 7.01106Z" fill="white"/>
<path d="M117.1 0.280151C117.34 0.280151 117.614 0.280151 117.888 0.280151C130.88 0.280151 143.873 0.280151 156.866 0.280151C157.781 0.280151 158.16 0.792346 157.937 1.70797C157.382 3.97891 156.157 5.81865 154.452 7.36835C154.142 7.65067 153.818 7.64373 153.467 7.64373C149.914 7.6445 146.361 7.67458 142.808 7.62984C141.272 7.61056 140.096 8.18832 139.255 9.45184C139.004 9.82827 138.728 9.92392 138.312 9.92392C130.674 9.91467 123.036 9.91775 115.398 9.91621C115.226 9.91621 115.056 9.89847 114.777 9.88304C115.542 8.35725 116.104 6.8253 116.382 5.2108C116.655 3.62176 116.85 2.01807 117.1 0.280151Z" fill="white"/>
<path d="M137.282 12.134C136.053 13.7717 134.627 14.766 132.718 15.0282C131.922 15.1378 131.135 15.3731 130.364 15.6137C129.48 15.8899 128.863 16.497 128.372 17.3015C126.667 20.0978 124.921 22.8685 123.188 25.6486C123.107 25.779 123 25.8931 122.92 26.0235C121.761 27.9226 119.956 28.6732 117.873 28.8915C116.992 28.9833 116.102 29.0226 115.215 29.0257C111.23 29.0396 107.244 29.0319 103.258 29.0326C103.009 29.0326 102.761 29.0326 102.409 29.0326C102.602 28.5135 102.906 28.1779 103.187 27.8293C104.221 26.5442 104.222 26.5457 105.843 26.5457C109.219 26.5457 112.596 26.5233 115.973 26.5557C117.517 26.5704 118.827 26.0991 119.817 24.8926C120.447 24.1251 121.047 23.3221 121.573 22.4782C122.605 20.8221 123.375 19.0317 124.036 17.1935C124.078 17.0778 124.099 16.9544 124.145 16.7716C123.908 16.7438 123.719 16.7029 123.53 16.7021C121.371 16.6975 119.213 16.7191 117.056 16.6844C116.499 16.6751 116.212 16.9158 116.007 17.3748C115.465 18.5835 115.408 19.8555 115.545 21.1461C115.595 21.6212 115.7 22.0902 115.813 22.7575C115.019 22.3494 114.45 21.9375 114.02 21.3736C112.653 19.5763 112.048 17.5715 112.544 15.3067C112.791 14.1743 113.193 13.1006 113.801 12.134C121.607 12.134 129.366 12.134 137.282 12.134Z" fill="white"/>
<path d="M96.7443 49.0148C97.1541 47.9627 97.5038 47.0648 97.8527 46.1677C97.8184 46.143 97.7841 46.1183 97.7499 46.0936C97.6485 46.207 97.5297 46.3088 97.4482 46.4353C96.9751 47.1651 96.5074 47.8987 96.0457 48.6361C95.9025 48.8652 95.7684 49.0796 95.3655 48.903C95.4881 48.0198 95.6153 47.1118 95.7418 46.2039C95.6877 46.1885 95.6344 46.1723 95.5803 46.1569C95.3441 46.7377 95.1072 47.3178 94.8733 47.8994C94.7682 48.1609 94.6684 48.4247 94.5686 48.6885C94.4711 48.9454 94.3089 49.0557 93.9409 48.8968C94.4407 47.6294 94.9396 46.3636 95.4439 45.0854C95.7677 45.0854 96.0374 45.0854 96.3908 45.0854C96.2651 45.9702 96.1455 46.8149 96.0259 47.6603C96.0633 47.6788 96.1014 47.6973 96.1387 47.7158C96.2446 47.5986 96.368 47.4921 96.4533 47.361C96.8289 46.7817 97.2181 46.2086 97.5541 45.6061C97.8184 45.1325 98.1536 44.9466 98.7455 45.1487C98.2846 46.4114 97.8192 47.6696 97.2425 48.8829C97.2098 48.9493 97.0262 48.9439 96.7443 49.0148Z" fill="white"/>
<path d="M94.8741 45.1571C94.8962 45.444 94.7042 45.5281 94.4909 45.4942C93.9302 45.4062 93.7512 45.7518 93.5882 46.1946C93.2979 46.9852 92.9772 47.7651 92.6565 48.5442C92.5087 48.9029 92.4958 48.8975 91.9915 48.9013C92.4188 47.7998 92.8378 46.7214 93.2751 45.5952C92.9513 45.5289 92.7152 45.481 92.4645 45.4294C92.4821 45.3268 92.4706 45.2103 92.5095 45.1902C92.834 45.0174 94.1481 45.0082 94.8741 45.1571Z" fill="white"/>
</g>
<defs>
<clipPath id="clip0_66_68">
<rect width="158" height="50" fill="white"/>
</clipPath>
</defs>
</svg>
